<!DOCTYPE svg PUBLIC "-//W3C//DTD SVG 1.1//EN" "http://www.w3.org/Graphics/SVG/1.1/DTD/svg11.dtd">
<!-- Uploaded to: SVG Repo, www.svgrepo.com, Transformed by: SVG Repo Mixer Tools -->
<svg fill="#000000" height="208px" width="208px" version="1.1" id="Capa_1" xmlns="http://www.w3.org/2000/svg" xmlns:xlink="http://www.w3.org/1999/xlink" viewBox="0 0 385.95 385.95" xml:space="preserve" stroke="#000000" stroke-width="1.1578589999999997">
<g id="SVGRepo_bgCarrier" stroke-width="0"/>
<g id="SVGRepo_tracerCarrier" stroke-linecap="round" stroke-linejoin="round"/>
<g id="SVGRepo_iconCarrier"> <path d="M358.557,201.65l-4.395-11.84c8.67-7.961,11.845-20.481,7.659-31.757l-8.686-23.398c-3.045-8.203-9.602-14.455-17.563-17.34 V89c0-49.075-39.925-89-89-89H139.382c-49.075,0-89,39.925-89,89v28.314c-7.962,2.886-14.518,9.137-17.563,17.341l-8.686,23.398 c-4.186,11.277-1.012,23.797,7.659,31.757l-4.395,11.839c-5.994,16.148-9.034,33.07-9.034,50.296v72.983 c0,33.649,27.376,61.025,61.025,61.025h227.178c33.649,0,61.024-27.376,61.024-61.025v-72.983 C367.59,234.72,364.551,217.799,358.557,201.65z M139.382,10h107.189c43.561,0,79,35.439,79,79v26.55h-10V89 c0-38.047-30.953-69-69-69H139.382c-38.047,0-69,30.953-69,69v26.55h-10V89C60.382,45.439,95.822,10,139.382,10z M158.624,98.805 c0-9.233,7.508-16.745,16.736-16.745c1.575,0,3.112,0.228,4.591,0.648c-3.39,4.482-5.405,10.059-5.405,16.099 c0,6.04,2.015,11.617,5.405,16.099c-1.477,0.418-3.015,0.645-4.59,0.645C166.131,115.55,158.624,108.038,158.624,98.805z M184.545,98.807c0-9.232,7.511-16.743,16.743-16.743s16.743,7.511,16.743,16.743s-7.511,16.743-16.743,16.743 S184.545,108.039,184.545,98.807z M201.289,72.063c-4.702,0-9.121,1.224-12.964,3.363c-3.951-2.2-8.366-3.367-12.964-3.367 c-14.742,0-26.736,11.998-26.736,26.745c0,6.334,2.217,12.158,5.911,16.745H80.382V89c0-32.533,26.468-59,59-59h107.189 c32.532,0,59,26.467,59,59v26.55H222.12c3.694-4.587,5.911-10.409,5.911-16.743C228.032,84.06,216.035,72.063,201.289,72.063z M33.508,161.533l8.686-23.398c2.795-7.528,10.067-12.585,18.097-12.585h265.373c8.029,0,15.302,5.058,18.097,12.585l8.686,23.398 c2.24,6.033,1.277,12.607-2.219,17.675l-12.414-33.442c-2.662-7.172-9.591-11.991-17.241-11.991H65.382 c-7.65,0-14.579,4.819-17.241,11.991l-12.414,33.442C32.23,174.141,31.268,167.567,33.508,161.533z M357.59,324.928 c0,28.135-22.89,51.025-51.024,51.025H79.388c-28.136,0-51.025-22.89-51.025-51.025v-72.983c0-16.034,2.829-31.785,8.409-46.815 l20.744-55.883c1.215-3.272,4.376-5.471,7.866-5.471h255.189c3.49,0,6.651,2.198,7.866,5.471l20.744,55.883 c5.579,15.031,8.408,30.782,8.408,46.815V324.928z"/> </g>
</svg>